<svg xmlns="http://www.w3.org/2000/svg" width="1580" height="630" viewBox="0 0 1580 630" font-family="Segoe UI, Helvetica, Arial, sans-serif">
<defs>
<filter id="sh" x="-20%" y="-20%" width="140%" height="160%"><feDropShadow dx="0" dy="2" stdDeviation="2.5" flood-color="#1f2937" flood-opacity="0.16"/></filter>
<marker id="a" viewBox="0 0 10 10" refX="9" refY="5" markerWidth="7" markerHeight="7" orient="auto-start-reverse"><path d="M0,0 L10,5 L0,10 z" fill="#4b5563"/></marker>
<marker id="s" viewBox="0 0 10 10" refX="9" refY="5" markerWidth="5.5" markerHeight="5.5" orient="auto"><path d="M0,0 L10,5 L0,10 z" fill="#6b7280"/></marker>
<linearGradient id="gB" x1="0" y1="0" x2="0" y2="1"><stop offset="0" stop-color="#dbeefc"/><stop offset="1" stop-color="#b9dcf5"/></linearGradient>
<linearGradient id="gG" x1="0" y1="0" x2="0" y2="1"><stop offset="0" stop-color="#e3f4e1"/><stop offset="1" stop-color="#c6e7c2"/></linearGradient>
<linearGradient id="gY" x1="0" y1="0" x2="0" y2="1"><stop offset="0" stop-color="#fff8dc"/><stop offset="1" stop-color="#fbeaa8"/></linearGradient>
</defs>
<rect width="1580" height="630" fill="#fff"/>
<rect x="15" y="15" width="1550" height="305" rx="20" fill="#f8fafc" stroke="#cbd5e1" stroke-width="1.2"/>
<text x="38" y="169.5" font-size="18" font-weight="700" fill="#1e293b">Data sources</text><rect x="38" y="179.5" width="40" height="3" rx="1.5" fill="#7c3aed"/>
<rect x="15" y="332" width="1550" height="138" rx="20" fill="#f8fafc" stroke="#cbd5e1" stroke-width="1.2"/>
<text x="38" y="403.0" font-size="18" font-weight="700" fill="#1e293b">Data categories</text><rect x="38" y="413.0" width="40" height="3" rx="1.5" fill="#7c3aed"/>
<rect x="15" y="482" width="1550" height="133" rx="20" fill="#f8fafc" stroke="#cbd5e1" stroke-width="1.2"/>
<text x="38" y="550.5" font-size="18" font-weight="700" fill="#1e293b">Data objects</text><rect x="38" y="560.5" width="40" height="3" rx="1.5" fill="#7c3aed"/>
<g stroke="#4b5563" stroke-width="1.6" fill="none"><line x1="470" y1="107" x2="470" y2="237" marker-end="url(#a)"/><line x1="920" y1="107" x2="920" y2="237" marker-end="url(#a)"/><line x1="1295" y1="107" x2="1295" y2="139" marker-end="url(#a)"/><line x1="1295" y1="206" x2="1295" y2="237" marker-end="url(#a)"/><line x1="294.6666666666667" y1="352" x2="294.6666666666667" y2="372" marker-end="url(#a)"/><path d="M236.0,441 V577" stroke="#2b7bb9"/><path d="M236.0,513 H254.0" stroke="#2b7bb9" marker-end="url(#s)"/><path d="M236.0,545 H254.0" stroke="#2b7bb9" marker-end="url(#s)"/><path d="M236.0,577 H254.0" stroke="#2b7bb9" marker-end="url(#s)"/><line x1="470.00000000000006" y1="352" x2="470.00000000000006" y2="372" marker-end="url(#a)"/><path d="M411.33333333333337,441 V545" stroke="#2b7bb9"/><path d="M411.33333333333337,513 H429.33333333333337" stroke="#2b7bb9" marker-end="url(#s)"/><path d="M411.33333333333337,545 H429.33333333333337" stroke="#2b7bb9" marker-end="url(#s)"/><line x1="645.3333333333334" y1="352" x2="645.3333333333334" y2="372" marker-end="url(#a)"/><path d="M586.6666666666667,441 V513" stroke="#2b7bb9"/><path d="M586.6666666666667,513 H604.6666666666667" stroke="#2b7bb9" marker-end="url(#s)"/><line x1="828.5" y1="352" x2="828.5" y2="372" marker-end="url(#a)"/><path d="M766.0,441 V577" stroke="#3f9142"/><path d="M766.0,513 H784.0" stroke="#3f9142" marker-end="url(#s)"/><path d="M766.0,545 H784.0" stroke="#3f9142" marker-end="url(#s)"/><path d="M766.0,577 H784.0" stroke="#3f9142" marker-end="url(#s)"/><line x1="1011.5" y1="352" x2="1011.5" y2="372" marker-end="url(#a)"/><line x1="1198.5" y1="352" x2="1198.5" y2="372" marker-end="url(#a)"/><path d="M1131.0,441 V577" stroke="#c9a227"/><path d="M1131.0,513 H1149.0" stroke="#c9a227" marker-end="url(#s)"/><path d="M1131.0,545 H1149.0" stroke="#c9a227" marker-end="url(#s)"/><path d="M1131.0,577 H1149.0" stroke="#c9a227" marker-end="url(#s)"/><line x1="1391.5" y1="352" x2="1391.5" y2="372" marker-end="url(#a)"/><path d="M1324.0,441 V513" stroke="#c9a227"/><path d="M1324.0,513 H1342.0" stroke="#c9a227" marker-end="url(#s)"/><path d="M655,304 V352"/><path d="M294.6666666666667,352 H1011.5"/><path d="M1295,304 V352"/><path d="M1198.5,352 H1391.5"/></g>
<g filter="url(#sh)"><rect x="220" y="35" width="500" height="72" rx="12" fill="url(#gB)" stroke="#2b7bb9" stroke-width="1.4"/><rect x="750" y="35" width="340" height="72" rx="12" fill="url(#gG)" stroke="#3f9142" stroke-width="1.4"/><rect x="1115" y="35" width="360" height="72" rx="12" fill="url(#gY)" stroke="#c9a227" stroke-width="1.4"/><rect x="1115" y="142" width="360" height="64" rx="12" fill="url(#gY)" stroke="#c9a227" stroke-width="1.4"/><rect x="220" y="240" width="870" height="64" rx="12" fill="url(#gB)" stroke="#2b7bb9" stroke-width="1.4"/><rect x="1115" y="240" width="360" height="64" rx="12" fill="url(#gY)" stroke="#c9a227" stroke-width="1.4"/><rect x="220.0" y="375" width="149.33333333333334" height="66" rx="12" fill="url(#gB)" stroke="#2b7bb9" stroke-width="1.4"/><rect x="395.33333333333337" y="375" width="149.33333333333334" height="66" rx="12" fill="url(#gB)" stroke="#2b7bb9" stroke-width="1.4"/><rect x="570.6666666666667" y="375" width="149.33333333333334" height="66" rx="12" fill="url(#gB)" stroke="#2b7bb9" stroke-width="1.4"/><rect x="750.0" y="375" width="157.0" height="66" rx="12" fill="url(#gG)" stroke="#3f9142" stroke-width="1.4"/><rect x="933.0" y="375" width="157.0" height="66" rx="12" fill="url(#gG)" stroke="#3f9142" stroke-width="1.4"/><rect x="1115.0" y="375" width="167.0" height="66" rx="12" fill="url(#gY)" stroke="#c9a227" stroke-width="1.4"/><rect x="1308.0" y="375" width="167.0" height="66" rx="12" fill="url(#gY)" stroke="#c9a227" stroke-width="1.4"/></g>
<text x="470.0" y="77.0" font-size="18" font-weight="600" text-anchor="middle" fill="#1e293b">Process applications</text><text x="920.0" y="67.0" font-size="18" font-weight="600" text-anchor="middle" fill="#1e293b">BPMS</text><text x="920.0" y="90.0" font-size="15" text-anchor="middle" fill="#334155">(Camunda 8)</text><text x="1295.0" y="77.0" font-size="18" font-weight="600" text-anchor="middle" fill="#1e293b">FT-Factory</text><text x="1295.0" y="180.0" font-size="18" font-weight="600" text-anchor="middle" fill="#1e293b">MQTT-Broker</text><text x="655.0" y="278.0" font-size="18" font-weight="600" text-anchor="middle" fill="#1e293b">MySQL</text><text x="1295.0" y="278.0" font-size="18" font-weight="600" text-anchor="middle" fill="#1e293b">MongoDB</text><text x="294.6666666666667" y="413" font-size="15.5" text-anchor="middle" fill="#1e293b">Transactional data</text><text x="260.0" y="518" font-size="14.5" fill="#334155">Customer orders</text><text x="260.0" y="550" font-size="14.5" fill="#334155">Production orders</text><text x="260.0" y="582" font-size="14.5" fill="#334155">Purchasing orders</text><text x="470.00000000000006" y="413" font-size="15.5" text-anchor="middle" fill="#1e293b">Stock data</text><text x="435.33333333333337" y="518" font-size="14.5" fill="#334155">Component stock</text><text x="435.33333333333337" y="550" font-size="14.5" fill="#334155">Product stock</text><text x="645.3333333333334" y="413" font-size="15.5" text-anchor="middle" fill="#1e293b">Master data</text><text x="610.6666666666667" y="518" font-size="14.5" fill="#334155">Vendors</text><text x="828.5" y="413" font-size="15.5" text-anchor="middle" fill="#1e293b">Event data</text><text x="790.0" y="518" font-size="14.5" fill="#334155">Logistics process</text><text x="790.0" y="550" font-size="14.5" fill="#334155">Purchasing process</text><text x="790.0" y="582" font-size="14.5" fill="#334155">…other sub-processes</text><text x="1011.5" y="413" font-size="15.5" text-anchor="middle" fill="#1e293b">Process variables</text><text x="1198.5" y="413" font-size="15.5" text-anchor="middle" fill="#1e293b">Status data</text><text x="1155.0" y="518" font-size="14.5" fill="#334155">Station status</text><text x="1155.0" y="550" font-size="14.5" fill="#334155">Environmental status</text><text x="1155.0" y="582" font-size="14.5" fill="#334155">Factory production status</text><text x="1391.5" y="413" font-size="15.5" text-anchor="middle" fill="#1e293b">Stock data</text><text x="1348.0" y="518" font-size="14.5" fill="#334155">High-bay warehouse stock</text></svg>